Patient4_TMGait_0pt6_01_left_42_EMG.mot
version=1
nRows=30
nColumns=33
inDegrees=no
endheader
time	1LAddLong	2LGlutMax	3LGlutMed	4LIliopsoas	5LSemiMemb	6LBicFemLong	7LRecFem	8LVastMed	9LVastLat	10LGasMed	11LTibAnt	12lTibPost	13LPeroneusLong	14LSol	15LExtDigLong	16LFlexDigLong	17RAddLong	18RGlutMax	19RGlutMed	20RIliopsoas	21RSemiMemb	22RBicFemLong	23RRecFem	24RVastMed	25RVastLat	26RGasMed	27RTibAnt	28RTibPost	29RPeroneusLong	30RSol	31RExtDigLong	32RFlexDigLong
51.507	0.035706	0.39002	0.068512	-0.001373	0.074615	-0.029602	0.06546	0.012512	-0.1564	-0.00412	0.010223	-0.004272	-0.02182	-0.000458	0.0737	0.009308	0.033722	0.57388	-0.4808	0.090942	0.033264	-0.007324	0.68527	0.17502	-0.011292	0.003815	-0.97214	-0.009308	-0.085754	-0.10025	0.00473	-0.018616
51.508	0.034027	0.40512	0.017395	-0.001526	0.083466	0.087738	-0.030823	0.014343	-0.10727	-0.014343	0.005493	-0.001068	-0.03479	0.019073	0.040436	0.00473	-0.010986	0.48813	-0.40894	0.09903	0.006256	0.025024	0.65216	0.11734	0.013885	0.009155	-0.41916	-0.005035	-0.016785	-0.049744	0.00412	-0.016479
51.509	0.022736	0.3801	0.032043	0.000763	0.022736	0.14755	-0.13321	0.010071	-0.06897	0.081635	0.011444	-0.001984	-0.042877	0.003357	0.030212	-0.001984	-0.010834	0.43884	-0.53024	0.15503	-0.044556	0.080872	0.61554	0.12787	0.03891	0.007172	0.15305	0.000153	0.078583	-0.075989	0.005188	-0.019531
51.51	0.036316	0.37918	0.072937	0.00061	-0.050812	0.14038	-0.12604	0.006866	-0.020599	0.16129	0.021973	-0.003204	-0.049286	0.018616	0.025635	-0.008698	0.014038	0.38757	-0.61905	0.095367	-0.038452	0.11231	0.59143	0.20264	0.030975	0.012207	0.53451	-0.002747	0.11154	-0.13138	0.00412	-0.019379
51.511	0.016479	0.35324	0.048676	-0.001373	-0.13245	0.004578	-0.031891	0.016174	-0.015717	0.16617	0.011139	-0.005341	-0.013428	0.11261	0.036163	-0.002289	0.015259	0.36209	-0.42557	-0.007477	-0.027924	0.095367	0.5777	0.22461	0.054779	0.002747	0.41534	-0.004425	-0.17273	-0.098724	0.002136	-0.025635
51.512	0.01297	0.35004	-0.061493	0.01236	-0.098114	0.086517	-0.001068	0.016174	-0.006714	0.13611	0.012054	-0.001068	-0.000458	0.22064	0.045776	-0.012207	0.079346	0.35156	-0.39551	-0.024261	-0.064392	0.078583	0.57648	0.1976	0.007782	0.005341	0.14236	-0.004425	-0.17746	0.026093	0.003204	-0.02594
51.513	-0.001526	0.37979	-0.05127	-0.011444	-0.013733	0.15778	-0.040741	0.025787	-0.023651	0.10773	0.007324	0.002441	-0.014191	0.1651	0.057678	0.012512	0.13001	0.38834	-0.51712	-0.066528	-0.10956	0.071106	0.55374	0.15457	-0.014801	0.00061	-0.14526	-0.010834	-0.009155	0.016937	-0.003052	-0.033112
51.514	0.005341	0.39475	-0.044098	-0.015411	0.049133	0.058594	-0.076752	0.021057	-0.043488	-0.03952	0.004578	0.001373	-0.031281	0.041656	-0.011597	-0.002899	0.15503	0.49194	-0.40619	-0.12528	-0.13367	0.076904	0.51148	0.19028	0.01358	0.006714	0.13397	-0.005035	0.013275	0.010529	0.004578	-0.036011
51.515	0.018616	0.43854	-0.11734	-0.005493	0.058441	-0.02121	-0.12497	0.015259	-0.033417	-0.074463	0.023346	-0.002289	-0.039368	-0.041046	-0.057068	-0.004272	0.17975	0.48157	-0.31769	-0.1152	-0.12558	0.1944	0.4776	0.14877	0.001221	0.001678	0.14404	-0.001678	0.05661	0.054321	0.005493	-0.042114
51.516	0.024109	0.47272	-0.097046	-0.010529	0.001831	0.019226	-0.12344	0.024109	-0.016785	0.010681	0.039368	-0.002136	-0.012665	-0.023041	-0.079041	0.003357	0.17899	0.51025	-0.37155	-0.079346	-0.13596	0.21149	0.45853	0.12665	-0.015411	-0.000458	0.071106	-0.002136	0.052643	0.075226	0.007935	-0.028687
51.517	0.023956	0.52841	0.12512	-0.006104	-0.063171	0.022736	-0.121	0.006866	0.012817	0.028687	0.030365	0.002747	0.002441	-0.003967	-0.081482	-0.011749	0.15747	0.52216	-0.57175	-0.063324	-0.18723	0.16937	0.47318	0.091095	-0.021973	-0.002594	0.10895	-0.001221	0.02243	-0.031433	0.008698	-0.03067
51.518	0.013733	0.53879	0.078583	0.002899	-0.1178	-0.086365	-0.15182	0.012207	-0.018158	0.025787	0.029907	0.000458	0.046082	0.03891	-0.046082	-0.006866	0.21729	0.54077	-0.49393	-0.019836	-0.22201	0.11246	0.50018	0.057678	-0.016479	0.000916	0.073242	-0.002747	0.00412	-0.10239	0.006561	-0.031128
51.519	0.021667	0.57465	0.11688	0.006409	-0.075226	-0.25238	-0.19165	0.009613	-0.001068	-0.005798	0.036011	0.006104	0.14191	0.048981	-0.020905	0.007019	0.27313	0.56549	-0.55176	0.027161	-0.19898	0.078888	0.53497	-0.070648	-0.016174	0.005646	-0.025787	-0.001984	0.043488	-0.17792	0.007782	-0.03479
51.52	0.023193	0.56168	0.054474	-0.006256	0.018616	-0.26321	-0.2562	0.005188	0.083008	-0.026703	0.031433	-0.00412	-0.33676	0.033569	-0.006256	0.001373	0.26489	0.61645	-0.51193	0.028992	-0.22598	-0.03479	0.56641	-0.17899	-0.024719	0.002594	-0.16754	-0.000916	0.033112	-0.19775	0.00824	-0.028992
51.521	0.011139	0.5632	-0.018463	-0.018158	0.022278	-0.046539	-0.23804	0.006866	0	-0.060883	0.041504	-0.003662	-0.32135	0.025177	-0.016937	0.009155	0.13809	0.6488	-0.5159	0.036774	-0.16876	0.034332	0.57907	-0.2449	-0.029907	-0.002441	-0.28839	-0.003357	-0.050201	-0.2211	0.008545	-0.022888
51.522	-0.010071	0.56732	-0.042419	-0.007019	-0.019836	0.022583	-0.22812	0.007324	0.054321	-0.053253	0.021515	-0.001221	0.019684	0.026093	-0.013733	0.002747	-0.040894	0.76019	-0.53146	0.069122	-0.16235	0.18829	0.53406	-0.2243	-0.013275	-0.000916	-0.25177	-0.001678	-0.09613	-0.19394	0.004272	-0.024872
51.523	-0.007477	0.58762	-0.034332	0.008545	-0.03006	-0.027161	-0.24445	-0.00351	0.11856	0.079651	0.014954	-0.001984	-0.074005	0.0177	-0.007324	0.008545	-0.14526	0.80643	-0.50095	0.035858	-0.11398	0.11581	0.50736	-0.17502	-0.004578	0.003815	0.19669	-0.003662	-0.048828	-0.22553	0.006409	-0.010681
51.524	0.018463	0.60333	0.023804	0.018616	0.053864	-0.033722	-0.23071	-0.001831	0.11963	0.19409	0.013733	0.003357	-0.25986	0.038605	0.007477	0.003052	-0.29694	0.91736	-0.53451	-0.02243	-0.098267	0.067902	0.48172	-0.06012	0.006866	0.008392	0.28534	-0.00351	0.063934	-0.2385	0.005188	-0.011597
51.525	0.039978	0.5986	-0.019684	0.013428	0.10376	0.066071	-0.22125	-0.001526	0.18677	0.22156	0.027466	-0.006104	-0.11261	0.076294	0.022278	0.00885	-0.41672	0.9549	-0.45715	-0.036163	-0.099792	0.13931	0.40176	0.020294	0.024872	0.004425	0.42954	-0.003204	0.20248	-0.1915	0.000916	-0.010834
51.526	0.035095	0.551	-0.055389	0.018158	0.029907	0.048981	-0.20706	0.004425	0.24674	0.14008	0.007019	-0.006104	0.3392	0.040283	-0.007324	0.006866	-0.42099	0.93674	-0.34882	0.007324	-0.059052	0.26138	0.14374	-0.001221	0.005341	0.002594	0.66452	-0.003815	-0.009308	-0.15472	0.004425	-0.016632
51.527	0.024567	0.53528	-0.006561	0.005951	-0.031586	-0.000305	-0.22385	0.009918	0.2829	-0.066528	0.012817	-0.007629	0.34943	0.034485	-0.020447	-0.00412	-0.45776	0.93735	-0.29556	0.15411	-0.010986	0.43686	0.11444	0.025177	0.006866	0.000305	0.89371	-0.003052	-0.18631	-0.17227	0.004425	-0.018616
51.528	0.034485	0.49347	0.027466	-0.001221	-0.033264	0.15488	-0.2034	0.010071	0.14832	-0.16632	0.013428	-0.004272	0.10727	0.059662	-0.01358	0.028992	-0.41641	1.012	-0.37033	0.18829	0.069427	0.46463	0.2681	0.04776	-0.01297	-0.002136	0.52978	-0.002594	-0.19302	-0.16464	0.001068	-0.016022
51.529	0.03418	0.47333	-0.023499	0.025177	-0.038147	0.20004	-0.15182	0.00946	-0.090332	-0.18127	-0.010223	-0.001831	-0.40695	0.08255	0.015411	0.012512	-0.31525	1.0826	-0.41229	0.075378	0.14145	0.42465	0.32333	0.095673	-0.020599	0.014954	-0.12299	-0.003967	-0.12878	-0.22842	-0.002899	-0.009003
51.53	0.03067	0.48584	-0.018768	0.02121	-0.041199	0.075378	-0.092621	-0.000305	-0.47806	-0.044403	0.011902	-0.005646	-0.41718	0.057831	0.018311	-0.006561	-0.18249	1.0922	-0.25009	-0.031433	0.23178	0.3685	0.42053	0.12222	0.010223	0.014191	-0.10025	-0.005493	0.023956	-0.37323	0.001526	-0.017242
51.531	0.021667	0.46112	-0.014648	0.026855	-0.039063	-0.09964	-0.112	-0.007629	-0.41687	-0.017548	0.02243	-0.004425	-0.028534	0.017853	-0.045166	-0.003357	0.022736	1.0539	-0.45319	0.00885	0.2211	0.25879	0.49606	0.2063	0.026855	0.016632	-0.086823	-0.00473	0.076599	-0.32059	0.003662	-0.0177
51.532	0.023651	0.43686	0.082703	0.012817	-0.023499	-0.26703	-0.11368	-0.010986	-0.23453	-0.006409	0.011444	-0.002136	0.12299	0.017548	-0.057983	0.028687	0.18188	0.99716	-0.55389	0.050964	0.072021	0.17303	0.5426	0.17303	0.021973	0.001984	-0.45105	-0.003357	-0.011292	-0.092468	0.00412	-0.02533
51.533	0.0177	0.38498	-0.000916	-0.010376	-0.015259	0.055542	-0.08667	-0.026245	-0.11231	0.012054	-0.01358	-0.004883	0.28748	0.02182	-0.02655	0.003815	0.26199	0.89035	-0.51559	0.053558	0.024261	0.1564	0.60318	0.15991	0.041351	-0.000458	-0.26932	-0.005035	-0.055695	0.013885	0.004883	-0.017548
51.534	0.01709	0.36514	-0.052948	-0.04303	-0.010681	-0.15533	-0.10269	-0.024719	-0.064697	0.011444	0.007782	0.002289	-0.004578	0.095215	0.010223	0.001984	0.29312	0.75409	-0.44754	0.046997	0.01358	0.14435	0.79117	0.11978	0.045319	-0.006409	0.14755	-0.00412	-0.097656	-0.022736	0.002594	-0.013885
51.535	0.013733	0.34103	-0.04715	-0.023956	-0.027771	-0.27222	-0.064087	-0.013885	-0.032043	0.043945	0.03067	0.001221	0.088348	0.081024	0.02243	-0.00061	0.30045	0.61737	-0.42587	-0.028534	0.032196	0.23636	0.81085	-0.031891	0.03418	-0.007324	0.050201	-0.004883	-0.047455	-0.004272	0.00061	-0.013275
51.536	0.003052	0.31281	-0.056305	-0.007172	-0.057068	-0.15198	-0.088654	-0.015106	-0.014038	0.072327	0.033875	-0.005951	0.50308	0.017548	-0.023651	-0.001678	0.27695	0.57129	-0.34622	-0.05722	0.037231	0.4155	0.7785	-0.06546	0.052795	-0.012207	-0.39002	-0.004883	0.067139	0.024567	0.001373	-0.009613
